<?xml version="1.0" standalone="no"?><!DOCTYPE svg PUBLIC "-//W3C//DTD SVG 1.1//EN" "http://www.w3.org/Graphics/SVG/1.1/DTD/svg11.dtd"><svg t="1504865407218" class="icon" style="" viewBox="0 0 1024 1024" version="1.1" xmlns="http://www.w3.org/2000/svg" p-id="6535" xmlns:xlink="http://www.w3.org/1999/xlink" width="200" height="200"><defs><style type="text/css"></style></defs><path d="M428.8 120h-80v-80h80v80zM112 596.8h-80v80h80v-80z m0-120h-80v80h80v-80z m0-118.4h-80v80h80v-80zM112 160c0-22.4 17.6-40 40-40h158.4v-80h-158.4c-65.6 0-118.4 52.8-118.4 118.4v158.4h80V160H112z m435.2-118.4h-80v80h80v-80z m120 0h-80v80h80v-80z m-132.8 460.8c0-12.8-8-16-20.8-16h-19.2v32h19.2c12.8-1.6 20.8-3.2 20.8-16zM190.4 200h635.2v635.2H190.4V200z m398.4 340.8c0 36.8 22.4 56 59.2 56 36.8 0 59.2-17.6 59.2-56V456H672v84.8c0 19.2-6.4 24-22.4 24-17.6 0-22.4-8-22.4-24V456H592l-3.2 84.8z m-129.6 52.8H496v-46.4h25.6c32 0 48-19.2 48-44.8 0-27.2-17.6-44.8-48-44.8h-62.4v136z m-148.8-68.8c0 40 25.6 70.4 67.2 70.4 32 0 57.6-19.2 60.8-60.8h-35.2c-6.4 43.2-57.6 38.4-57.6-11.2 0-22.4 9.6-41.6 32-41.6 12.8 0 22.4 8 25.6 22.4h35.2c-3.2-36.8-28.8-54.4-60.8-54.4-41.6 3.2-67.2 35.2-67.2 75.2z m595.2 32h80v-80h-80v80zM112 873.6v-158.4h-80v158.4c0 65.6 52.8 118.4 118.4 118.4h158.4v-80h-158.4c-20.8 1.6-38.4-16-38.4-38.4z m793.6 0c0 22.4-17.6 40-40 40h-158.4v80h158.4c65.6 0 118.4-52.8 118.4-118.4v-158.4h-80v156.8h1.6z m0-198.4h80v-80h-80v80z m0-236.8h80v-80h-80v80z m-40-396.8h-158.4v80h158.4c22.4 0 40 17.6 40 40V320h80v-160c-1.6-65.6-54.4-118.4-120-118.4zM348.8 993.6h80v-80h-80v80z m238.4 0h80v-80h-80v80z m-118.4 0h80v-80h-80v80z" fill="#ffffff" p-id="6536"></path></svg>