<?xml version="1.0" standalone="no"?><!DOCTYPE svg PUBLIC "-//W3C//DTD SVG 1.1//EN" "http://www.w3.org/Graphics/SVG/1.1/DTD/svg11.dtd"><svg t="1504865244133" class="icon" style="" viewBox="0 0 1024 1024" version="1.1" xmlns="http://www.w3.org/2000/svg" p-id="5817" xmlns:xlink="http://www.w3.org/1999/xlink" width="200" height="200"><defs><style type="text/css"></style></defs><path d="M25.6 779.808h32v-44.8h910.4v44.8h32v-100.8H25.6v100.8z m0-136h972.8v-70.4c-3.2 0-4.8-1.6-8-1.6s-4.8-1.6-8-3.2-4.8-1.6-8-3.2c-1.6-1.6-4.8-3.2-6.4-4.8-1.6-1.6-4.8-3.2-6.4-4.8-1.6-1.6-4.8-3.2-6.4-4.8-1.6-1.6-3.2-3.2-4.8-6.4-1.6-1.6-3.2-4.8-4.8-6.4-1.6-1.6-3.2-4.8-4.8-6.4-1.6-3.2-3.2-4.8-3.2-8-1.6-3.2-1.6-4.8-3.2-8s-1.6-4.8-1.6-8-1.6-4.8-1.6-8v-4.8-9.6c0-1.6 0-3.2 1.6-6.4 0-3.2 1.6-4.8 1.6-8s1.6-4.8 3.2-8c1.6-1.6 1.6-4.8 3.2-8s3.2-4.8 4.8-6.4c1.6-1.6 3.2-4.8 4.8-6.4 1.6-1.6 3.2-4.8 6.4-6.4 1.6-1.6 4.8-3.2 6.4-4.8 1.6-1.6 4.8-3.2 6.4-4.8 1.6-1.6 4.8-3.2 6.4-3.2 3.2-1.6 4.8-1.6 8-3.2s4.8-1.6 8-3.2c1.6 0 3.2-1.6 4.8-1.6v-169.6c0-19.2-14.4-33.6-33.6-33.6H57.6c-19.2 0-33.6 14.4-33.6 33.6v171.2c3.2 0 4.8 1.6 8 1.6s4.8 1.6 8 3.2 4.8 1.6 8 3.2c1.6 1.6 4.8 3.2 6.4 4.8 1.6 1.6 4.8 3.2 6.4 4.8 1.6 1.6 4.8 3.2 6.4 4.8 1.6 1.6 3.2 4.8 4.8 6.4 1.6 1.6 3.2 4.8 4.8 6.4 1.6 1.6 3.2 4.8 4.8 6.4 1.6 3.2 3.2 4.8 3.2 8 1.6 3.2 1.6 4.8 3.2 8 0 3.2 1.6 4.8 1.6 8s1.6 4.8 1.6 8V504.608c0 1.6 0 3.2-1.6 6.4 0 3.2-1.6 4.8-1.6 8-1.6 3.2-1.6 4.8-3.2 8-1.6 1.6-1.6 4.8-3.2 8s-3.2 4.8-4.8 6.4c-1.6 3.2-3.2 4.8-4.8 6.4-1.6 1.6-3.2 4.8-6.4 6.4-1.6 1.6-3.2 3.2-6.4 4.8-1.6 1.6-4.8 3.2-6.4 4.8-1.6 1.6-4.8 3.2-6.4 3.2-3.2 1.6-4.8 1.6-8 3.2s-4.8 1.6-8 3.2c-1.6 0-3.2 1.6-4.8 1.6v68.8z m33.6-368c0-19.2 14.4-33.6 33.6-33.6s33.6 14.4 33.6 33.6-14.4 33.6-33.6 33.6-33.6-16-33.6-33.6z m81.6 320v-204.8h137.6v204.8H160h-19.2z m36.8-36.8h64v-131.2h-64v131.2z m16-236.8v-80h33.6v80h-33.6z m100.8 0v-80h33.6v80h-33.6z m48 273.6v-204.8H480v204.8h-118.4-19.2z m36.8-36.8h64v-131.2h-64v131.2z m16-236.8v-80h33.6v80h-33.6z m100.8 0v-80h33.6v80H496z m48 273.6v-204.8h137.6v204.8h-118.4H544z m36.8-36.8h64v-131.2h-64v131.2z m16-236.8v-80h33.6v80h-33.6z m100.8 0v-80h33.6v80h-33.6z m48 273.6v-204.8h137.6v204.8h-137.6z m36.8-36.8h64v-131.2h-64v131.2z m14.4-236.8v-80h33.6v80h-33.6z m100.8-46.4c0-19.2 14.4-33.6 33.6-33.6s33.6 14.4 33.6 33.6-14.4 33.6-33.6 33.6-33.6-16-33.6-33.6z" fill="#ffffff" p-id="5818"></path></svg>